<svg width="360" height="45" viewBox="0 0 360 45" fill="none" xmlns="http://www.w3.org/2000/svg">
<rect x="0.000488281" width="359.999" height="30.3061" fill="url(#paint0_linear)"/>
<path d="M57.625 45L74.1877 29.1582H41.0623L57.625 45Z" fill="#FE0101"/>
<rect y="27.5508" width="57.7499" height="17.449" fill="#FE0101"/>
<path d="M44.0483 17.3086L42.2964 21.6742L44.3847 21.6754L44.0802 17.3086H44.0483Z" fill="white"/>
<path d="M55 15.3099V14.0191L12 14V27.2182L54.9973 27.2372V25.7678H52.6957V25.3796H54.9973V23.2885H52.6922V22.8967H54.9982V20.7103H52.693V20.3209H54.9991V18.1679H52.6975V17.7797H54.9991V15.6945H52.6939V15.3099H55ZM14.3742 25.7499H12.0682V25.3605H14.3742V25.7499ZM14.3742 23.2682H12.069V22.8788H14.3707L14.3742 23.2682ZM14.3742 20.6925H12.0699V20.3031H14.3716L14.3742 20.6925ZM14.3742 18.1512H12.0699V17.7618H14.376L14.3742 18.1512ZM14.3742 15.6767H12.0708V15.2873H14.3769L14.3742 15.6767ZM22.5274 18.3334H20.3656C20.4391 17.925 20.3913 17.6189 20.2301 17.401C20.069 17.1831 19.8176 17.0664 19.4494 17.0664C18.9518 17.0664 18.4508 17.5034 18.3676 18.0274C18.2463 18.7978 18.8987 19.0455 19.4405 19.2492C20.6798 19.7017 22.5539 19.8767 22.106 22.7145C21.7519 24.927 19.9672 25.9762 18.1596 25.975C16.3519 25.9738 14.8532 25.2605 15.2728 22.4025H17.4363C17.2699 23.3921 17.724 23.9303 18.4986 23.9315C18.9979 23.9315 19.691 23.5814 19.8008 22.8836C20.0265 21.4546 18.3764 21.7618 16.837 20.7568C16.1217 20.2911 15.8854 19.3278 16.0642 18.1965C16.5449 15.7076 18.2773 15.0241 19.9088 15.0241C21.5253 15.0289 23.0576 15.8005 22.5291 18.3334H22.5274ZM29.157 21.4939H25.6726L25.3185 23.7219H29.1047L28.7816 25.7594H22.831L24.4944 15.2528H30.445L30.1219 17.2903L26.341 17.2867L25.9984 19.4564H29.4819L29.157 21.4939ZM34.6269 25.7606L33.2504 17.7118H33.2291L31.9561 25.7594H30.0086L31.672 15.2528H34.7013L36.0787 23.0836L36.1044 23.0539L37.3393 15.2539H39.2869L37.6253 25.7618L34.6269 25.7606ZM44.7851 25.7606L44.5913 23.7088H41.423L40.5935 25.763H38.4255L43.1722 15.2587H45.8164L47.2328 25.7666L44.7851 25.7606ZM50.2161 25.7606H48.0544L49.7177 15.2539H51.8813L50.2161 25.7606Z" fill="white"/>
<path d="M18 34.3131L18.2474 33.9193C18.6151 34.3681 18.968 34.5925 19.4571 34.5925C19.9462 34.5925 20.2435 34.2536 20.2435 33.785V33.7728C20.2435 33.3316 20.0665 33.0812 19.3266 32.8706C18.5152 32.6324 18.1418 32.2798 18.1418 31.4967V31.483C18.1418 30.7365 18.6309 30.1885 19.3027 30.1885C19.7547 30.1714 20.1955 30.379 20.5408 30.7716L20.3138 31.1853C20.031 30.8528 19.6682 30.6694 19.2925 30.6693C18.8386 30.6693 18.5413 31.0082 18.5413 31.4326V31.4463C18.5413 31.8936 18.7229 32.1455 19.4991 32.3622C20.2753 32.579 20.6475 32.9805 20.6475 33.7056V33.7193C20.6475 34.533 20.1436 35.0611 19.4423 35.0611C18.9065 35.068 18.3897 34.7943 18.0011 34.2979" fill="white"/>
<path d="M23.6739 33.2712L22.8739 30.8501L22.0659 33.2697L23.6739 33.2712ZM22.0579 29.7449C22.1589 29.2778 22.2951 29.0534 22.5323 29.0534C22.7695 29.0534 23.0407 29.319 23.2064 29.319C23.338 29.319 23.3936 29.2244 23.4696 29L23.7159 29.0946C23.6149 29.5633 23.4798 29.7801 23.2427 29.7801C23.0055 29.7801 22.7331 29.5144 22.5675 29.5144C22.4358 29.5144 22.3802 29.6091 22.3042 29.8396L22.0579 29.7449ZM22.6878 30.2334H23.06L24.6668 35.0145H24.2413L23.8282 33.7597H21.9059L21.4871 35.013H21.0786L22.6878 30.2334Z" fill="white"/>
<path d="M28.1864 32.645V32.6328C28.1864 31.5536 27.6031 30.6728 26.7962 30.6728C25.9894 30.6728 25.4152 31.5398 25.414 32.6175V32.6313C25.414 33.709 25.9985 34.5913 26.8053 34.5913C27.6121 34.5913 28.1864 33.7243 28.1864 32.645ZM25.001 32.645V32.6328C25.001 31.3246 25.7329 30.1782 26.8064 30.1797C27.88 30.1812 28.6006 31.3108 28.5994 32.6221V32.6359C28.6041 32.9575 28.5608 33.2771 28.4721 33.5758C28.3833 33.8745 28.2508 34.1462 28.0826 34.3748C27.9143 34.6035 27.7137 34.7843 27.4925 34.9067C27.2714 35.0291 27.0342 35.0906 26.7951 35.0875C25.7216 35.0875 25.001 33.9548 25.001 32.645Z" fill="white"/>
<path d="M32.2235 32.8485C32.8079 32.8485 33.1914 32.4287 33.1914 31.8044V31.7921C33.1914 31.1128 32.8136 30.7617 32.2439 30.7617H31.3519V32.85L32.2235 32.8485ZM30.9536 30.2656H32.2745C33.0689 30.2656 33.5943 30.8365 33.5943 31.7723V31.7845C33.5943 32.8088 32.9588 33.337 32.2076 33.337H31.3519V35.0162H30.9536V30.2656Z" fill="white"/>
<path d="M36.2554 33.2763L35.4554 30.8568L34.6474 33.2763H36.2554ZM35.2738 30.2324H35.6461L37.2529 35.0135H36.824L36.412 33.7587H34.492L34.0732 35.0135H33.6602L35.2738 30.2324Z" fill="white"/>
<path d="M37.7681 33.0275V30.2676H38.1664V32.9924C38.1664 34.0167 38.5692 34.5937 39.2444 34.5937C39.8947 34.5937 40.3077 34.0656 40.3077 33.0275V30.2691H40.7061V32.9878C40.7061 34.3709 40.116 35.0899 39.2308 35.0883C38.3457 35.0868 37.7635 34.3693 37.7647 33.0275" fill="white"/>
<path d="M41.6501 30.2695H42.0484L42.0472 34.5209H44.0343L44.0331 35.017L41.6489 35.0155L41.6501 30.2695Z" fill="white"/>
<path d="M47.5959 32.6569V32.6446C47.5959 31.5669 47.0115 30.6861 46.2046 30.6846C45.3978 30.6831 44.8236 31.5517 44.8236 32.6309V32.6446C44.8236 33.7239 45.408 34.6047 46.2149 34.6062C47.0217 34.6077 47.5959 33.7376 47.5959 32.6599V32.6569ZM44.4105 32.6599V32.6446C44.4057 32.3229 44.4489 32.0031 44.5376 31.7042C44.6263 31.4053 44.7587 31.1334 44.9269 30.9047C45.0952 30.6759 45.2959 30.4949 45.5171 30.3724C45.7384 30.2499 45.9756 30.1884 46.2149 30.1915C47.2884 30.1915 48.009 31.3242 48.009 32.634V32.6446C48.014 32.9666 47.9709 33.2866 47.8822 33.5857C47.7934 33.8848 47.6609 34.1568 47.4925 34.3856C47.3241 34.6145 47.1232 34.7954 46.9018 34.9178C46.6803 35.0401 46.4429 35.1013 46.2035 35.0978C45.13 35.0978 44.4105 33.9651 44.4105 32.6553" fill="white"/>
<defs>
<linearGradient id="paint0_linear" x1="365.499" y1="30.3061" x2="7.54594" y2="30.3061" gradientUnits="userSpaceOnUse">
<stop stop-color="#FF0000"/>
<stop offset="0.0001" stop-color="#FF0000"/>
<stop offset="0.0002" stop-color="#950000"/>
<stop offset="0.84375" stop-color="#FE0000"/>
</linearGradient>
</defs>
</svg>
