<svg width="200" height="77" viewBox="0 0 200 77" fill="none" xmlns="http://www.w3.org/2000/svg">
<path d="M149.063 12.5713L140.915 29.1537L150.628 29.1582L149.212 12.5713H149.063Z" fill="white"/>
<path d="M200 4.97562V0.0723727L0 0V50.2085L199.988 50.2809V44.6992H189.282V43.2246H199.988V35.2817H189.266V33.7935H199.992V25.4887H189.27V24.0096H199.996V15.8315H189.291V14.3569H199.996V6.43664H189.274V4.97562H200ZM11.0429 44.6313H0.317042V43.1522H11.0429V44.6313ZM11.0429 35.2048H0.321159V33.7257H11.0265L11.0429 35.2048ZM11.0429 25.4209H0.325277V23.9418H11.0306L11.0429 25.4209ZM11.0429 15.7682H0.325277V14.2891H11.0512L11.0429 15.7682ZM11.0429 6.36879H0.329394V4.88968H11.0553L11.0429 6.36879ZM48.9645 16.4603H38.9097C39.2515 14.9088 39.0291 13.7463 38.2797 12.9185C37.5304 12.0908 36.361 11.6475 34.6482 11.6475C32.3342 11.6475 30.0037 13.3075 29.6167 15.2978C29.0526 18.2243 32.0871 19.1652 34.607 19.9387C40.3714 21.6575 49.088 22.3224 47.0046 33.1014C45.3576 41.5057 37.0569 45.4907 28.6491 45.4862C20.2413 45.4817 13.2705 42.7722 15.2221 31.9163H25.2851C24.5111 35.6752 26.6233 37.7197 30.226 37.7242C32.5483 37.7242 35.7722 36.3944 36.2828 33.7438C37.3327 28.3158 29.6578 29.4828 22.4976 25.6652C19.1707 23.8965 18.0714 20.2372 18.9031 15.9401C21.1389 6.4864 29.1967 3.89003 36.7851 3.89003C44.3035 3.90812 51.4308 6.83922 48.9727 16.4603H48.9645ZM79.7999 28.4651H63.5937L61.9467 36.9281H79.557L78.0541 44.6675H50.3767L58.1134 4.7585H85.7908L84.2879 12.4979L66.7024 12.4843L65.1089 20.7257H81.311L79.7999 28.4651ZM105.241 44.672L98.8389 14.0991H98.7401L92.8192 44.6675H83.7609L91.4975 4.7585H105.587L111.994 34.5037L112.113 34.3906L117.857 4.76303H126.916L119.187 44.6765L105.241 44.672ZM152.489 44.672L151.587 36.8784H136.851L132.993 44.6811H122.909L144.987 4.78112H157.286L163.874 44.6946L152.489 44.672ZM177.749 44.672H167.695L175.431 4.76303H185.494L177.749 44.672Z" fill="white"/>
<path d="M45.7041 74.5988L46.6017 73.4318C47.9357 74.7617 49.2163 75.4266 50.9909 75.4266C52.7655 75.4266 53.8443 74.4224 53.8443 73.0338V72.9976C53.8443 71.6904 53.2019 70.9485 50.5174 70.3243C47.5734 69.6187 46.2188 68.5738 46.2188 66.2534V66.2127C46.2188 64.0008 47.9934 62.3769 50.4309 62.3769C52.0707 62.3264 53.67 62.9416 54.923 64.1048L54.0995 65.3306C53.0734 64.3452 51.7568 63.8021 50.3939 63.8017C48.7469 63.8017 47.6681 64.8059 47.6681 66.0634V66.1041C47.6681 67.4294 48.3269 68.1758 51.1432 68.8181C53.9595 69.4604 55.3101 70.65 55.3101 72.7986V72.8393C55.3101 75.2502 53.4819 76.8152 50.9374 76.8152C48.9932 76.8356 47.118 76.0245 45.7082 74.5536" fill="white"/>
<path d="M66.2916 71.5126L63.3888 64.3387L60.4572 71.5081L66.2916 71.5126ZM60.4283 61.0638C60.7948 59.6797 61.2889 59.0148 62.1494 59.0148C63.01 59.0148 63.994 59.8018 64.5952 59.8018C65.0728 59.8018 65.2745 59.5214 65.5504 58.8564L66.4439 59.1369C66.0774 60.5255 65.5875 61.1678 64.7269 61.1678C63.8664 61.1678 62.8782 60.3808 62.2771 60.3808C61.7994 60.3808 61.5977 60.6612 61.3218 61.3443L60.4283 61.0638ZM62.7135 62.5113H64.064L69.8943 76.6782H68.3503L66.8515 72.9601H59.8766L58.3573 76.6737H56.875L62.7135 62.5113Z" fill="white"/>
<path d="M82.6631 69.6586V69.6224C82.6631 66.4245 80.5467 63.8145 77.6192 63.8145C74.6917 63.8145 72.6083 66.3838 72.6042 69.5772V69.6179C72.6042 72.8114 74.7247 75.4258 77.6522 75.4258C80.5797 75.4258 82.6631 72.8566 82.6631 69.6586ZM71.1055 69.6586V69.6224C71.1055 65.746 73.7612 62.349 77.6563 62.3535C81.5514 62.358 84.1659 65.7053 84.1618 69.5908V69.6315C84.1789 70.5845 84.0218 71.5316 83.6997 72.4167C83.3776 73.3019 82.8971 74.1069 82.2866 74.7843C81.6761 75.4617 80.9481 75.9976 80.1457 76.3603C79.3433 76.7231 78.4828 76.9052 77.6151 76.8959C73.72 76.8959 71.1055 73.5396 71.1055 69.6586Z" fill="white"/>
<path d="M97.3125 70.256C99.433 70.256 100.825 69.012 100.825 67.162V67.1258C100.825 65.113 99.4535 64.0726 97.3866 64.0726H94.1503V70.2605L97.3125 70.256ZM92.7051 62.6025H97.4978C100.38 62.6025 102.286 64.2943 102.286 67.067V67.1032C102.286 70.1383 99.9806 71.7034 97.2548 71.7034H94.1503V76.679H92.7051V62.6025Z" fill="white"/>
<path d="M111.941 71.5263L109.039 64.3569L106.107 71.5263H111.941ZM108.38 62.5068H109.73L115.561 76.6738H114.004L112.51 72.9556H105.543L104.024 76.6738H102.525L108.38 62.5068Z" fill="white"/>
<path d="M117.43 70.7894V62.6113H118.875V70.6854C118.875 73.7205 120.337 75.4303 122.787 75.4303C125.146 75.4303 126.645 73.8653 126.645 70.7894V62.6158H128.09V70.6718C128.09 74.7699 125.949 76.9004 122.737 76.8959C119.526 76.8914 117.413 74.7654 117.417 70.7894" fill="white"/>
<path d="M131.512 62.6152H132.958L132.954 75.2126H140.163L140.159 76.6827L131.508 76.6781L131.512 62.6152Z" fill="white"/>
<path d="M153.091 69.6951V69.6589C153.091 66.4655 150.97 63.8555 148.043 63.851C145.115 63.8465 143.032 66.4202 143.032 69.6182V69.6589C143.032 72.8569 145.152 75.4668 148.08 75.4713C151.007 75.4759 153.091 72.8976 153.091 69.7041V69.6951ZM141.533 69.7041V69.6589C141.515 68.7055 141.672 67.7579 141.994 66.8723C142.316 65.9866 142.796 65.181 143.407 64.5031C144.017 63.8253 144.746 63.2889 145.548 62.9259C146.351 62.563 147.212 62.3807 148.08 62.39C151.975 62.39 154.589 65.7463 154.589 69.6272V69.6589C154.608 70.6129 154.451 71.5611 154.129 72.4473C153.807 73.3336 153.327 74.1397 152.716 74.8177C152.104 75.4958 151.376 76.032 150.572 76.3945C149.769 76.757 148.907 76.9384 148.039 76.9278C144.144 76.9278 141.533 73.5716 141.533 69.6906" fill="white"/>
</svg>
